<svg xmlns="http://www.w3.org/2000/svg" xmlns:xlink="http://www.w3.org/1999/xlink" width="500" zoomAndPan="magnify" viewBox="0 0 375 374.999991" height="500" preserveAspectRatio="xMidYMid meet" version="1.0"><defs><g/><clipPath id="ccef0bedd0"><path d="M 260 120.96875 L 266 120.96875 L 266 127 L 260 127 Z M 260 120.96875 " clip-rule="nonzero"/></clipPath><clipPath id="05b424ad21"><path d="M 232.988281 125 L 304.988281 125 L 304.988281 225.96875 L 232.988281 225.96875 Z M 232.988281 125 " clip-rule="nonzero"/></clipPath></defs><path fill="#ffffff" d="M 274.417969 127.074219 L 274.417969 147.175781 L 273.832031 147.175781 L 273.832031 127.074219 L 274.417969 127.074219 " fill-opacity="1" fill-rule="nonzero"/><g clip-path="url(#ccef0bedd0)"><path fill="#ffffff" d="M 264.75 123.53125 C 264.75 124.421875 264.03125 125.144531 263.140625 125.144531 C 262.25 125.144531 261.53125 124.421875 261.53125 123.53125 C 261.53125 122.636719 262.25 121.914062 263.140625 121.914062 C 264.03125 121.914062 264.75 122.636719 264.75 123.53125 Z M 260.585938 123.53125 C 260.585938 124.945312 261.730469 126.089844 263.140625 126.089844 C 264.550781 126.089844 265.695312 124.945312 265.695312 123.53125 C 265.695312 122.113281 264.550781 120.96875 263.140625 120.96875 C 261.730469 120.96875 260.585938 122.113281 260.585938 123.53125 " fill-opacity="1" fill-rule="nonzero"/></g><path fill="#ffffff" d="M 282.027344 141.855469 C 282.027344 142.746094 281.308594 143.472656 280.417969 143.472656 C 279.527344 143.472656 278.804688 142.746094 278.804688 141.855469 C 278.804688 140.964844 279.527344 140.242188 280.417969 140.242188 C 281.308594 140.242188 282.027344 140.964844 282.027344 141.855469 Z M 277.863281 141.855469 C 277.863281 143.269531 279.007812 144.417969 280.417969 144.417969 C 281.828125 144.417969 282.972656 143.269531 282.972656 141.855469 C 282.972656 140.441406 281.828125 139.292969 280.417969 139.292969 C 279.007812 139.292969 277.863281 140.441406 277.863281 141.855469 " fill-opacity="1" fill-rule="nonzero"/><path fill="#ffffff" d="M 275.695312 194.882812 C 275.695312 195.855469 276.484375 196.648438 277.457031 196.648438 C 278.429688 196.648438 279.21875 195.855469 279.21875 194.882812 C 279.21875 193.90625 278.429688 193.113281 277.457031 193.113281 C 276.484375 193.113281 275.695312 193.90625 275.695312 194.882812 " fill-opacity="1" fill-rule="nonzero"/><path fill="#ffffff" d="M 272.363281 125.746094 C 272.363281 126.722656 273.152344 127.515625 274.125 127.515625 C 275.097656 127.515625 275.886719 126.722656 275.886719 125.746094 C 275.886719 124.773438 275.097656 123.980469 274.125 123.980469 C 273.152344 123.980469 272.363281 124.773438 272.363281 125.746094 " fill-opacity="1" fill-rule="nonzero"/><path fill="#ffffff" d="M 255.46875 142.652344 C 255.46875 143.625 256.257812 144.417969 257.230469 144.417969 C 258.203125 144.417969 258.996094 143.625 258.996094 142.652344 C 258.996094 141.675781 258.203125 140.886719 257.230469 140.886719 C 256.257812 140.886719 255.46875 141.675781 255.46875 142.652344 " fill-opacity="1" fill-rule="nonzero"/><path fill="#ffffff" d="M 271.289062 152.804688 C 271.289062 153.421875 270.792969 153.917969 270.179688 153.917969 C 269.566406 153.917969 269.066406 153.421875 269.066406 152.804688 C 269.066406 152.191406 269.566406 151.691406 270.179688 151.691406 C 270.792969 151.691406 271.289062 152.191406 271.289062 152.804688 Z M 268.417969 152.804688 C 268.417969 153.78125 269.207031 154.574219 270.179688 154.574219 C 271.152344 154.574219 271.941406 153.78125 271.941406 152.804688 C 271.941406 151.828125 271.152344 151.039062 270.179688 151.039062 C 269.207031 151.039062 268.417969 151.828125 268.417969 152.804688 " fill-opacity="1" fill-rule="nonzero"/><path fill="#ffffff" d="M 259.453125 191.761719 C 259.453125 192.375 258.957031 192.875 258.34375 192.875 C 257.730469 192.875 257.230469 192.375 257.230469 191.761719 C 257.230469 191.148438 257.730469 190.648438 258.34375 190.648438 C 258.957031 190.648438 259.453125 191.148438 259.453125 191.761719 Z M 256.582031 191.761719 C 256.582031 192.738281 257.371094 193.527344 258.34375 193.527344 C 259.316406 193.527344 260.105469 192.738281 260.105469 191.761719 C 260.105469 190.785156 259.316406 189.996094 258.34375 189.996094 C 257.371094 189.996094 256.582031 190.785156 256.582031 191.761719 " fill-opacity="1" fill-rule="nonzero"/><g clip-path="url(#05b424ad21)"><path fill="#ffffff" d="M 288.554688 187.808594 L 288.554688 210.730469 L 303.738281 225.96875 L 304.984375 225.96875 L 289.433594 210.363281 L 289.433594 187.445312 L 280.910156 178.898438 L 280.910156 143.886719 L 280.03125 143.886719 L 280.03125 179.265625 Z M 258.851562 193.050781 L 257.972656 193.050781 L 257.972656 214.605469 L 246.636719 225.96875 L 247.878906 225.96875 L 258.851562 214.96875 Z M 262.742188 163.226562 L 269 169.5 L 269 180.660156 L 263.753906 185.917969 L 263.753906 225.96875 L 264.632812 225.96875 L 264.632812 186.285156 L 269.878906 181.027344 L 269.878906 169.136719 L 263.621094 162.859375 L 263.621094 125.746094 L 262.742188 125.746094 Z M 249.132812 210.667969 L 249.132812 187.75 L 257.65625 179.203125 L 257.65625 143.886719 L 257.070312 143.886719 L 257.070312 178.960938 L 248.546875 187.503906 L 248.546875 210.425781 L 232.988281 225.96875 L 233.820312 225.96875 L 249.046875 210.753906 Z M 277.1875 186.59375 L 277.273438 186.507812 L 277.273438 159.363281 L 271.632812 153.707031 L 271.21875 154.125 L 276.6875 159.605469 L 276.6875 186.265625 L 270.125 192.84375 L 270.039062 192.929688 L 270.039062 225.96875 L 270.625 225.96875 L 270.625 193.175781 Z M 277.78125 196.441406 L 277.195312 196.441406 L 277.195312 217.648438 L 285.496094 225.96875 L 286.324219 225.96875 L 277.78125 217.40625 L 277.78125 196.441406 " fill-opacity="1" fill-rule="nonzero"/></g><g fill="#cb1517" fill-opacity="1"><g transform="translate(80.8071, 225.189492)"><g><path d="M 1.875 -12.859375 L 1.875 -17.59375 L 9.78125 -17.59375 L 9.78125 -12.34375 C 9.78125 -11.53125 9.800781 -10.785156 9.84375 -10.109375 C 9.894531 -9.429688 9.960938 -8.851562 10.046875 -8.375 C 10.140625 -7.90625 10.25 -7.519531 10.375 -7.21875 C 10.539062 -6.820312 10.765625 -6.53125 11.046875 -6.34375 C 11.335938 -6.164062 11.726562 -6.078125 12.21875 -6.078125 C 13.132812 -6.078125 13.734375 -6.375 14.015625 -6.96875 C 14.171875 -7.332031 14.296875 -7.84375 14.390625 -8.5 C 14.484375 -9.15625 14.53125 -9.941406 14.53125 -10.859375 C 14.53125 -12.679688 14.207031 -14.269531 13.5625 -15.625 C 13.238281 -16.300781 12.804688 -17 12.265625 -17.71875 C 11.734375 -18.4375 11.101562 -19.175781 10.375 -19.9375 L 7 -23.421875 C 5.363281 -25.097656 4.097656 -26.859375 3.203125 -28.703125 C 2.273438 -30.554688 1.8125 -32.691406 1.8125 -35.109375 C 1.8125 -39.046875 2.585938 -41.992188 4.140625 -43.953125 C 5.734375 -45.941406 8.410156 -46.9375 12.171875 -46.9375 C 14.023438 -46.9375 15.609375 -46.644531 16.921875 -46.0625 C 18.234375 -45.488281 19.238281 -44.601562 19.9375 -43.40625 C 20.613281 -42.28125 21.109375 -40.90625 21.421875 -39.28125 C 21.742188 -37.664062 21.90625 -35.8125 21.90625 -33.71875 L 21.90625 -30.234375 L 14.1875 -30.234375 L 14.1875 -34.15625 C 14.1875 -34.863281 14.164062 -35.515625 14.125 -36.109375 C 14.082031 -36.710938 14.019531 -37.222656 13.9375 -37.640625 C 13.863281 -38.054688 13.773438 -38.398438 13.671875 -38.671875 C 13.515625 -39.035156 13.3125 -39.300781 13.0625 -39.46875 C 12.820312 -39.632812 12.488281 -39.71875 12.0625 -39.71875 C 11.226562 -39.71875 10.628906 -39.445312 10.265625 -38.90625 C 9.867188 -38.300781 9.671875 -37.332031 9.671875 -36 C 9.671875 -35.320312 9.722656 -34.71875 9.828125 -34.1875 C 9.941406 -33.664062 10.101562 -33.210938 10.3125 -32.828125 C 10.769531 -32.015625 11.613281 -30.945312 12.84375 -29.625 L 16.609375 -25.546875 C 17.578125 -24.503906 18.429688 -23.453125 19.171875 -22.390625 C 19.910156 -21.328125 20.519531 -20.25 21 -19.15625 C 22.007812 -16.96875 22.515625 -14.59375 22.515625 -12.03125 C 22.515625 -9.832031 22.328125 -7.914062 21.953125 -6.28125 C 21.578125 -4.644531 21 -3.28125 20.21875 -2.1875 C 19.4375 -1.0625 18.363281 -0.222656 17 0.328125 C 15.644531 0.890625 14.035156 1.171875 12.171875 1.171875 C 8.316406 1.171875 5.617188 -0.0664062 4.078125 -2.546875 C 2.609375 -4.941406 1.875 -8.378906 1.875 -12.859375 Z M 1.875 -12.859375 "/></g></g></g><g fill="#cb1517" fill-opacity="1"><g transform="translate(106.190692, 225.189492)"><g><path d="M 2.78125 0 L 2.78125 -46.390625 L 19.421875 -46.390625 L 19.421875 -39.09375 L 11.046875 -39.09375 L 11.046875 -27.078125 L 19 -27.078125 L 19 -19.90625 L 11.046875 -19.90625 L 11.046875 -6.65625 L 19.734375 -6.65625 L 19.734375 0.65625 L 2.78125 0.65625 Z M 2.78125 0 "/></g></g></g><g fill="#cb1517" fill-opacity="1"><g transform="translate(129.261215, 225.189492)"><g><path d="M 20.90625 -2.28125 C 19.195312 0.0195312 16.539062 1.171875 12.9375 1.171875 C 9.332031 1.171875 6.628906 -0.0507812 4.828125 -2.5 C 3.078125 -4.875 2.203125 -8.25 2.203125 -12.625 L 2.203125 -32.5625 C 2.203125 -39.65625 4.109375 -44.113281 7.921875 -45.9375 C 9.328125 -46.59375 11.019531 -46.921875 13 -46.921875 C 16.394531 -46.921875 18.957031 -45.828125 20.6875 -43.640625 C 22.425781 -41.460938 23.296875 -38.285156 23.296875 -34.109375 L 23.296875 -27.15625 L 15.265625 -27.15625 L 15.265625 -33.65625 C 15.265625 -34.425781 15.238281 -35.125 15.1875 -35.75 C 15.144531 -36.382812 15.082031 -36.921875 15 -37.359375 C 14.914062 -37.804688 14.820312 -38.175781 14.71875 -38.46875 C 14.5625 -38.863281 14.347656 -39.148438 14.078125 -39.328125 C 13.804688 -39.503906 13.4375 -39.59375 12.96875 -39.59375 C 12.65625 -39.59375 12.382812 -39.546875 12.15625 -39.453125 C 11.9375 -39.367188 11.742188 -39.238281 11.578125 -39.0625 C 11.410156 -38.894531 11.269531 -38.660156 11.15625 -38.359375 C 10.738281 -37.378906 10.53125 -35.820312 10.53125 -33.6875 L 10.53125 -12.328125 C 10.53125 -9.953125 10.726562 -8.269531 11.125 -7.28125 C 11.300781 -6.863281 11.523438 -6.5625 11.796875 -6.375 C 12.078125 -6.195312 12.441406 -6.109375 12.890625 -6.109375 C 13.203125 -6.109375 13.46875 -6.144531 13.6875 -6.21875 C 13.90625 -6.300781 14.09375 -6.429688 14.25 -6.609375 C 14.40625 -6.796875 14.539062 -7.023438 14.65625 -7.296875 C 14.851562 -7.785156 15.003906 -8.457031 15.109375 -9.3125 C 15.210938 -10.175781 15.265625 -11.207031 15.265625 -12.40625 L 15.265625 -19.59375 L 23.390625 -19.59375 L 23.390625 -12.484375 C 23.390625 -7.921875 22.5625 -4.519531 20.90625 -2.28125 Z M 20.90625 -2.28125 "/></g></g></g><g fill="#cb1517" fill-opacity="1"><g transform="translate(156.100224, 225.189492)"><g><path d="M 3.046875 0 L 3.046875 -46.390625 L 11.3125 -46.390625 L 11.3125 0.65625 L 3.046875 0.65625 Z M 3.046875 0 "/></g></g></g><g fill="#cb1517" fill-opacity="1"><g transform="translate(172.309509, 225.189492)"><g><path d="M 5.125 0 L 5.125 -39.0625 L -0.234375 -39.0625 L -0.234375 -46.390625 L 18.5 -46.390625 L 18.5 -39.0625 L 13.359375 -39.0625 L 13.359375 0.65625 L 5.125 0.65625 Z M 5.125 0 "/></g></g></g><g fill="#cb1517" fill-opacity="1"><g transform="translate(192.443212, 225.189492)"><g><path d="M 2.78125 0 L 2.78125 -46.390625 L 19.421875 -46.390625 L 19.421875 -39.09375 L 11.046875 -39.09375 L 11.046875 -27.078125 L 19 -27.078125 L 19 -19.90625 L 11.046875 -19.90625 L 11.046875 -6.65625 L 19.734375 -6.65625 L 19.734375 0.65625 L 2.78125 0.65625 Z M 2.78125 0 "/></g></g></g><g fill="#cb1517" fill-opacity="1"><g transform="translate(215.513733, 225.189492)"><g><path d="M 20.90625 -2.28125 C 19.195312 0.0195312 16.539062 1.171875 12.9375 1.171875 C 9.332031 1.171875 6.628906 -0.0507812 4.828125 -2.5 C 3.078125 -4.875 2.203125 -8.25 2.203125 -12.625 L 2.203125 -32.5625 C 2.203125 -39.65625 4.109375 -44.113281 7.921875 -45.9375 C 9.328125 -46.59375 11.019531 -46.921875 13 -46.921875 C 16.394531 -46.921875 18.957031 -45.828125 20.6875 -43.640625 C 22.425781 -41.460938 23.296875 -38.285156 23.296875 -34.109375 L 23.296875 -27.15625 L 15.265625 -27.15625 L 15.265625 -33.65625 C 15.265625 -34.425781 15.238281 -35.125 15.1875 -35.75 C 15.144531 -36.382812 15.082031 -36.921875 15 -37.359375 C 14.914062 -37.804688 14.820312 -38.175781 14.71875 -38.46875 C 14.5625 -38.863281 14.347656 -39.148438 14.078125 -39.328125 C 13.804688 -39.503906 13.4375 -39.59375 12.96875 -39.59375 C 12.65625 -39.59375 12.382812 -39.546875 12.15625 -39.453125 C 11.9375 -39.367188 11.742188 -39.238281 11.578125 -39.0625 C 11.410156 -38.894531 11.269531 -38.660156 11.15625 -38.359375 C 10.738281 -37.378906 10.53125 -35.820312 10.53125 -33.6875 L 10.53125 -12.328125 C 10.53125 -9.953125 10.726562 -8.269531 11.125 -7.28125 C 11.300781 -6.863281 11.523438 -6.5625 11.796875 -6.375 C 12.078125 -6.195312 12.441406 -6.109375 12.890625 -6.109375 C 13.203125 -6.109375 13.46875 -6.144531 13.6875 -6.21875 C 13.90625 -6.300781 14.09375 -6.429688 14.25 -6.609375 C 14.40625 -6.796875 14.539062 -7.023438 14.65625 -7.296875 C 14.851562 -7.785156 15.003906 -8.457031 15.109375 -9.3125 C 15.210938 -10.175781 15.265625 -11.207031 15.265625 -12.40625 L 15.265625 -19.59375 L 23.390625 -19.59375 L 23.390625 -12.484375 C 23.390625 -7.921875 22.5625 -4.519531 20.90625 -2.28125 Z M 20.90625 -2.28125 "/></g></g></g><g fill="#ffffff" fill-opacity="1"><g transform="translate(33.300579, 225.293692)"><g><path d="M 19.070312 -13.148438 L 18.820312 -16.515625 C 18.820312 -16.703125 18.757812 -17.199219 18.570312 -18.136719 L 18.570312 -18.074219 L 18.320312 -18.136719 L 18.199219 -18.382812 L 18.382812 -18.382812 L 18.507812 -18.199219 C 18.320312 -18.820312 18.320312 -19.195312 18.382812 -19.445312 C 18.011719 -19.941406 17.699219 -20.316406 17.449219 -20.503906 C 17.449219 -20.566406 17.386719 -20.691406 17.261719 -20.878906 L 17.136719 -20.941406 L 17.136719 -21 L 17.261719 -21 C 17.261719 -21.125 17.199219 -21.25 17.136719 -21.3125 L 17.136719 -21.375 L 16.949219 -20.753906 L 16.890625 -20.753906 C 16.828125 -20.753906 16.765625 -20.878906 16.765625 -21.125 L 16.640625 -21.25 L 16.515625 -21.125 L 16.453125 -21.25 L 16.390625 -21.25 L 16.078125 -21.125 L 15.953125 -21.5625 L 15.703125 -21.4375 L 15.703125 -21.875 L 15.640625 -21.875 L 15.457031 -21.375 L 15.457031 -20.628906 L 15.332031 -20.441406 L 15.207031 -20.441406 L 15.207031 -20.878906 C 15.207031 -21.125 15.144531 -21.3125 15.019531 -21.375 L 14.957031 -21.375 C 14.957031 -21.0625 14.894531 -20.941406 14.769531 -20.941406 L 14.769531 -21.0625 L 14.832031 -21.4375 L 14.769531 -21.4375 L 14.582031 -21.25 L 14.519531 -21.375 L 14.269531 -21.375 L 14.210938 -20.941406 C 14.210938 -20.753906 14.332031 -20.378906 14.582031 -20.003906 L 14.582031 -19.816406 L 14.394531 -19.816406 L 14.269531 -19.070312 L 14.394531 -17.574219 L 14.394531 -17.511719 L 14.269531 -16.828125 L 14.269531 -16.140625 C 14.269531 -15.765625 14.332031 -15.519531 14.519531 -15.394531 L 14.519531 -15.207031 C 14.332031 -15.082031 14.269531 -14.832031 14.269531 -14.457031 L 14.148438 -14.457031 L 14.085938 -15.207031 L 14.148438 -16.265625 L 14.085938 -16.515625 L 14.148438 -16.640625 L 14.148438 -16.703125 L 14.085938 -16.828125 L 14.085938 -16.890625 L 14.148438 -16.890625 L 14.085938 -18.445312 L 14.085938 -20.003906 L 13.960938 -20.316406 L 14.085938 -20.628906 L 13.898438 -21.4375 L 13.960938 -21.5625 L 13.898438 -21.6875 L 13.773438 -21.6875 L 13.773438 -21.5625 L 13.085938 -21.75 L 12.777344 -21.4375 L 12.652344 -21.9375 L 13.773438 -22.0625 L 13.960938 -21.9375 L 14.394531 -22.0625 L 14.582031 -22.0625 L 15.578125 -21.9375 L 15.890625 -22.0625 L 16.828125 -22 C 16.453125 -22.621094 16.078125 -23.121094 15.890625 -23.371094 C 15.640625 -23.558594 15.269531 -23.742188 14.832031 -23.992188 L 14.832031 -23.929688 L 14.519531 -23.742188 L 14.394531 -23.742188 L 14.023438 -24.242188 L 14.023438 -24.429688 L 14.269531 -24.617188 L 14.457031 -24.617188 L 14.832031 -24.179688 L 14.832031 -23.992188 C 14.894531 -23.992188 14.957031 -24.054688 15.019531 -24.179688 C 15.207031 -24.554688 15.269531 -24.867188 15.269531 -25.054688 C 15.890625 -25.925781 16.453125 -26.484375 16.890625 -26.859375 L 17.074219 -27.734375 C 17.261719 -28.105469 17.449219 -28.542969 17.574219 -28.917969 L 18.011719 -30.039062 L 18.011719 -31.597656 L 18.199219 -34.402344 L 18.382812 -38.140625 C 18.382812 -38.390625 18.261719 -38.824219 18.074219 -39.324219 C 17.824219 -39.949219 17.761719 -40.320312 17.761719 -40.632812 C 17.449219 -41.195312 17.136719 -41.566406 16.890625 -41.753906 C 16.765625 -42.191406 16.703125 -42.566406 16.703125 -42.75 C 16.390625 -43.625 16.015625 -44.308594 15.578125 -44.996094 C 15.269531 -45.429688 14.332031 -45.804688 12.839844 -46.242188 C 11.589844 -46.554688 10.53125 -46.738281 9.785156 -46.738281 C 8.226562 -46.117188 6.980469 -45.742188 6.167969 -45.679688 C 5.796875 -45.492188 5.171875 -44.996094 4.363281 -44.121094 C 3.550781 -43.25 2.992188 -42.628906 2.867188 -42.316406 C 2.742188 -42.128906 2.742188 -41.878906 2.742188 -41.503906 L 3.304688 -41.441406 L 4.550781 -41.566406 L 5.046875 -41.441406 L 5.046875 -41.070312 L 4.550781 -40.570312 L 4.050781 -40.570312 L 4.050781 -40.382812 C 3.550781 -39.386719 3.304688 -38.578125 3.304688 -37.890625 L 3.304688 -36.707031 L 5.046875 -36.707031 L 4.859375 -36.894531 L 4.859375 -37.765625 C 4.859375 -37.953125 5.484375 -38.515625 6.667969 -39.386719 C 6.917969 -39.636719 7.042969 -40.070312 7.042969 -40.570312 L 7.292969 -40.570312 L 7.292969 -40.695312 L 6.667969 -40.882812 L 5.796875 -40.570312 L 5.796875 -40.882812 C 5.796875 -41.132812 6.167969 -41.316406 6.855469 -41.566406 C 7.539062 -41.566406 8.039062 -41.195312 8.351562 -40.570312 C 8.101562 -40.570312 7.851562 -40.382812 7.664062 -40.070312 L 7.789062 -39.886719 L 7.789062 -39.761719 C 7.601562 -39.386719 6.792969 -38.699219 5.296875 -37.578125 L 5.296875 -37.265625 L 6.667969 -37.265625 L 7.167969 -37.578125 L 7.664062 -37.019531 L 7.664062 -36.582031 C 7.789062 -37.265625 8.164062 -38.015625 8.664062 -39.011719 C 8.414062 -39.324219 8.289062 -39.761719 8.226562 -40.257812 L 8.539062 -40.570312 L 8.847656 -40.570312 L 8.847656 -40.070312 C 8.847656 -39.636719 8.972656 -39.386719 9.160156 -39.261719 L 9.285156 -39.386719 L 9.722656 -39.386719 L 8.847656 -40.695312 L 8.847656 -40.882812 L 9.035156 -40.695312 L 9.160156 -40.695312 C 9.160156 -41.257812 9.535156 -41.566406 10.28125 -41.566406 C 11.09375 -41.441406 11.46875 -41.257812 11.46875 -40.882812 C 11.46875 -40.695312 11.34375 -40.570312 11.03125 -40.570312 L 11.15625 -39.386719 C 11.15625 -39.324219 11.15625 -39.199219 11.09375 -39.136719 C 11.40625 -39.011719 11.589844 -38.949219 11.652344 -38.761719 C 12.152344 -40.070312 12.714844 -40.695312 13.335938 -40.695312 C 13.335938 -41.070312 13.585938 -41.316406 13.960938 -41.566406 L 14.269531 -41.257812 C 13.710938 -40.507812 13.398438 -39.949219 13.460938 -39.574219 C 13.460938 -38.699219 13.773438 -38.265625 14.394531 -38.265625 L 14.394531 -38.078125 C 13.960938 -37.828125 13.710938 -37.640625 13.648438 -37.453125 L 13.773438 -37.265625 C 13.585938 -37.265625 13.460938 -37.019531 13.460938 -36.519531 L 13.023438 -37.019531 L 13.148438 -37.265625 L 13.023438 -37.890625 L 12.339844 -37.890625 C 12.714844 -37.328125 12.839844 -36.707031 12.839844 -36.144531 L 12.339844 -30.226562 C 12.339844 -29.664062 11.714844 -29.164062 10.53125 -28.730469 C 10.34375 -28.542969 10.15625 -28.480469 9.910156 -28.480469 C 9.785156 -28.480469 9.660156 -28.542969 9.472656 -28.605469 C 8.414062 -28.667969 7.789062 -29.414062 7.539062 -30.910156 C 7.539062 -33.277344 7.476562 -34.835938 7.476562 -35.523438 C 7.476562 -35.773438 7.476562 -36.019531 7.601562 -36.332031 C 7.292969 -35.585938 7.042969 -35.210938 6.855469 -35.210938 L 6.667969 -36.207031 L 4.859375 -35.835938 C 4.488281 -36.082031 3.925781 -36.207031 3.117188 -36.207031 L 2.054688 -36.207031 L 2.054688 -31.035156 L 2.304688 -30.414062 C 2.304688 -29.601562 2.304688 -29.105469 2.242188 -28.855469 C 2.242188 -28.417969 2.304688 -27.980469 2.492188 -27.546875 C 3.304688 -26.238281 3.988281 -25.363281 4.613281 -24.804688 C 4.859375 -24.429688 4.984375 -24.117188 5.109375 -23.867188 C 3.488281 -22.808594 2.304688 -21.375 1.621094 -19.445312 C 1.371094 -18.136719 1.246094 -17.074219 1.246094 -16.265625 C 0.933594 -15.703125 0.808594 -15.144531 0.808594 -14.582031 L 0.808594 -10.65625 L 1.433594 -8.664062 C 1.433594 -7.914062 1.371094 -7.105469 1.308594 -6.230469 C 1.246094 -4.675781 1.621094 -3.367188 2.554688 -2.429688 L 3.863281 -1.058594 C 4.300781 -0.4375 4.613281 0 4.796875 0.3125 C 6.355469 1.308594 7.789062 1.871094 9.160156 1.871094 C 9.535156 1.871094 9.910156 1.808594 10.28125 1.746094 C 13.023438 1.121094 14.707031 0.4375 15.269531 -0.25 C 15.457031 -0.746094 15.519531 -1.121094 15.578125 -1.308594 C 16.015625 -2.054688 16.453125 -2.617188 16.703125 -2.992188 L 16.828125 -3.988281 C 17.261719 -4.613281 17.699219 -5.046875 17.949219 -5.234375 L 17.886719 -6.417969 L 18.757812 -9.660156 Z M 6.855469 -43.5625 L 6.667969 -43.5625 L 6.417969 -43.875 L 6.542969 -44.058594 L 6.667969 -44.058594 L 7.042969 -43.75 Z M 2.804688 -41.070312 C 2.804688 -40.945312 2.804688 -40.820312 2.742188 -40.632812 C 2.492188 -40.195312 2.242188 -39.886719 2.054688 -39.699219 C 1.933594 -39.449219 1.871094 -39.199219 1.871094 -38.949219 C 1.871094 -38.515625 2.054688 -37.515625 2.054688 -37.082031 L 2.054688 -36.582031 L 2.742188 -36.707031 L 2.554688 -36.894531 C 2.929688 -39.324219 3.304688 -40.570312 3.613281 -40.570312 L 4.050781 -40.570312 L 4.050781 -41.070312 Z M 5.046875 -39.886719 L 4.859375 -40.070312 L 4.859375 -40.257812 L 5.171875 -40.570312 L 5.421875 -40.257812 Z M 7.664062 -36.582031 C 7.601562 -36.519531 7.601562 -36.457031 7.601562 -36.332031 C 7.601562 -36.394531 7.601562 -36.457031 7.664062 -36.519531 Z M 13.148438 -31.410156 L 15.207031 -31.410156 L 15.207031 -31.035156 L 12.898438 -31.035156 Z M 17.761719 -30.597656 L 17.886719 -30.535156 L 17.761719 -29.664062 L 17.636719 -29.664062 Z M 15.953125 -29.476562 L 16.078125 -29.476562 L 16.265625 -28.480469 C 16.078125 -28.542969 15.953125 -28.855469 15.890625 -29.414062 Z M 15.144531 -26.984375 L 14.894531 -26.796875 L 14.832031 -26.796875 L 14.582031 -27.046875 L 14.832031 -27.296875 L 14.957031 -27.296875 L 15.144531 -27.046875 Z M 10.65625 -24.929688 L 10.96875 -25.054688 L 11.03125 -24.929688 L 11.03125 -24.742188 L 10.65625 -24.742188 Z M 8.664062 -24.804688 L 9.597656 -24.804688 L 9.972656 -24.929688 L 9.972656 -24.804688 L 10.097656 -24.929688 L 10.46875 -24.929688 L 10.46875 -24.742188 L 8.726562 -24.679688 L 8.664062 -24.679688 Z M 7.539062 -24.742188 L 8.164062 -24.742188 L 8.164062 -24.554688 L 7.539062 -24.554688 Z M 6.355469 -24.679688 L 6.855469 -24.679688 L 6.855469 -24.492188 L 6.355469 -24.492188 Z M 10.53125 -23.558594 L 10.84375 -23.558594 L 10.84375 -23.371094 L 10.53125 -23.371094 Z M 14.085938 -23.308594 L 14.085938 -23.246094 L 13.898438 -23.121094 L 13.835938 -23.121094 L 13.835938 -23.246094 L 13.898438 -23.308594 Z M 5.984375 -20.503906 L 5.859375 -20.628906 L 5.859375 -20.878906 C 5.859375 -21 6.105469 -21.125 6.480469 -21.1875 L 6.542969 -21.0625 L 6.542969 -20.941406 C 6.480469 -20.691406 6.292969 -20.503906 5.984375 -20.503906 Z M 17.386719 -17.761719 L 17.386719 -17.699219 L 17.324219 -17.699219 L 17.136719 -17.074219 L 17.011719 -17.074219 L 17.136719 -17.636719 C 16.890625 -17.574219 16.828125 -17.449219 16.828125 -17.324219 L 16.890625 -17.199219 C 16.828125 -17.199219 16.765625 -16.949219 16.640625 -16.515625 L 16.515625 -16.515625 L 16.203125 -18.570312 L 16.078125 -18.570312 L 16.203125 -19.007812 L 16.203125 -20.753906 L 16.265625 -20.753906 C 16.390625 -20.753906 16.515625 -20.316406 16.640625 -19.382812 L 16.453125 -19.132812 L 16.515625 -18.011719 L 16.640625 -18.011719 L 16.640625 -18.199219 L 16.765625 -18.074219 L 17.136719 -17.886719 L 17.324219 -18.011719 L 17.386719 -18.011719 L 17.324219 -17.886719 L 17.324219 -17.761719 Z M 13.023438 -17.699219 L 12.898438 -17.511719 L 12.527344 -17.511719 L 12.339844 -17.699219 C 12.464844 -17.074219 12.464844 -16.515625 12.402344 -15.765625 C 12.402344 -15.082031 12.339844 -14.457031 12.339844 -13.835938 L 12.339844 -12.527344 C 12.214844 -11.839844 12.152344 -11.21875 12.152344 -10.59375 L 12.214844 -8.910156 C 12.214844 -8.101562 12.027344 -7.476562 11.714844 -6.917969 C 11.652344 -6.105469 11.15625 -5.546875 10.40625 -5.234375 C 10.28125 -5.171875 10.097656 -5.109375 10.035156 -5.109375 C 9.910156 -5.109375 9.847656 -5.171875 9.785156 -5.171875 C 8.726562 -5.234375 8.039062 -5.921875 7.726562 -7.167969 C 7.355469 -9.160156 7.230469 -10.28125 7.230469 -10.40625 L 7.105469 -11.902344 C 6.917969 -14.957031 6.855469 -16.453125 6.792969 -16.390625 C 6.855469 -16.949219 7.230469 -17.886719 7.976562 -19.132812 C 8.039062 -19.132812 8.164062 -19.132812 8.226562 -19.195312 L 8.164062 -19.257812 L 8.164062 -19.382812 L 8.351562 -19.382812 L 9.097656 -20.253906 C 9.722656 -20.253906 10.28125 -20.128906 10.71875 -19.816406 C 11.652344 -19.257812 12.152344 -18.570312 12.277344 -17.886719 L 12.464844 -18.074219 L 12.777344 -18.074219 L 13.023438 -17.824219 Z M 14.269531 -19.878906 L 14.394531 -19.816406 L 14.394531 -19.878906 Z M 6.667969 -18.945312 L 6.855469 -18.945312 L 6.917969 -18.757812 L 6.480469 -18.757812 Z M 18.136719 -18.570312 L 17.886719 -18.945312 L 17.949219 -18.882812 L 18.136719 -18.632812 Z M 17.511719 -18.382812 L 17.386719 -18.199219 L 17.324219 -18.199219 L 17.324219 -18.382812 L 17.449219 -18.445312 L 17.511719 -18.445312 Z M 18.011719 -17.199219 L 17.886719 -17.199219 L 17.886719 -17.136719 L 17.636719 -17.199219 L 17.886719 -17.511719 L 18.011719 -17.324219 Z M 15.765625 -14.148438 L 15.578125 -14.148438 L 15.640625 -14.519531 L 15.765625 -14.519531 Z M 18.632812 -13.523438 L 18.382812 -13.523438 L 18.382812 -13.835938 L 18.445312 -13.898438 L 18.570312 -13.835938 L 18.695312 -13.585938 Z M 13.273438 -11.527344 L 13.148438 -11.652344 L 13.148438 -11.714844 L 13.398438 -11.714844 Z M 15.703125 -6.980469 C 15.703125 -6.917969 15.519531 -6.792969 15.207031 -6.667969 L 14.085938 -6.917969 L 14.085938 -6.980469 L 14.269531 -7.167969 L 14.269531 -7.105469 C 14.394531 -7.105469 14.457031 -7.167969 14.457031 -7.355469 L 15.578125 -7.105469 L 15.703125 -7.105469 Z M 12.960938 -6.667969 L 12.089844 -6.667969 L 12.089844 -6.917969 L 12.960938 -6.792969 Z M 11.902344 -6.667969 L 11.839844 -6.667969 L 11.714844 -6.792969 L 11.902344 -6.792969 Z M 16.765625 -5.421875 L 16.640625 -5.421875 L 16.640625 -5.546875 L 16.703125 -5.609375 L 16.640625 -5.734375 L 16.640625 -6.046875 L 16.765625 -6.230469 Z M 10.65625 -3.738281 L 10.28125 -3.550781 L 10.28125 -3.738281 L 10.53125 -3.925781 L 10.65625 -3.800781 Z M 10.65625 -3.738281 "/></g></g></g><g fill="#ffffff" fill-opacity="1"><g transform="translate(53.304641, 225.293692)"><g><path d="M 11.714844 -27.234375 C 12.089844 -27.171875 12.339844 -27.296875 12.527344 -27.546875 C 12.714844 -27.792969 12.839844 -28.167969 12.839844 -28.792969 L 12.898438 -29.539062 L 12.898438 -29.851562 C 12.839844 -29.976562 12.839844 -30.289062 12.839844 -30.972656 L 12.777344 -32.40625 L 12.777344 -32.78125 C 12.777344 -33.03125 12.839844 -33.214844 12.898438 -33.464844 C 12.960938 -33.714844 12.898438 -33.964844 12.839844 -34.464844 L 12.777344 -35.335938 L 12.714844 -35.710938 C 12.714844 -36.019531 12.714844 -36.207031 12.777344 -36.394531 C 12.839844 -36.644531 12.839844 -36.832031 12.898438 -37.144531 C 12.898438 -37.390625 12.839844 -37.640625 12.839844 -37.828125 C 12.777344 -38.078125 12.777344 -38.390625 12.777344 -38.886719 L 12.777344 -39.636719 C 12.777344 -40.195312 12.714844 -40.507812 12.589844 -41.070312 L 12.464844 -41.378906 C 12.402344 -41.566406 12.277344 -41.878906 11.902344 -42.253906 C 11.589844 -42.6875 11.40625 -42.875 11.21875 -43 L 10.71875 -43.5 C 10.59375 -43.6875 10.34375 -43.8125 9.910156 -43.9375 L 9.097656 -44.246094 L 8.910156 -44.308594 C 8.726562 -44.308594 8.289062 -44.308594 7.476562 -44.246094 L 6.980469 -44.183594 L 6.730469 -44.183594 C 6.542969 -44.183594 6.355469 -44.121094 6.105469 -44.058594 C 5.859375 -44 5.671875 -43.875 5.546875 -43.75 C 5.359375 -43.5625 5.109375 -43.4375 4.675781 -43.25 C 4.175781 -43.0625 3.863281 -42.8125 3.488281 -42.378906 L 3.367188 -42.191406 C 3.242188 -42.003906 3.117188 -41.878906 2.867188 -41.628906 C 2.617188 -41.441406 2.429688 -41.195312 2.179688 -40.820312 C 1.933594 -40.445312 1.808594 -40.257812 1.746094 -40.007812 C 1.683594 -39.824219 1.683594 -39.574219 1.683594 -39.074219 C 1.746094 -38.636719 1.871094 -38.453125 2.179688 -38.453125 C 2.429688 -38.515625 2.679688 -38.578125 2.867188 -38.824219 C 3.117188 -39.011719 3.242188 -39.136719 3.367188 -39.324219 C 3.488281 -39.511719 3.738281 -39.699219 4.300781 -40.070312 L 4.738281 -40.445312 C 5.046875 -40.695312 5.234375 -40.882812 5.421875 -41.007812 C 5.671875 -41.132812 5.921875 -41.195312 6.355469 -41.257812 L 6.980469 -41.378906 C 7.476562 -41.441406 7.789062 -41.441406 8.039062 -41.316406 C 8.351562 -41.257812 8.601562 -41.070312 8.972656 -40.695312 L 9.160156 -40.507812 C 9.347656 -40.320312 9.472656 -40.070312 9.597656 -39.511719 C 9.660156 -38.949219 9.722656 -38.699219 9.660156 -38.453125 C 9.660156 -38.203125 9.597656 -38.078125 9.597656 -37.828125 C 9.597656 -37.578125 9.535156 -37.328125 9.285156 -37.019531 C 9.097656 -36.707031 8.910156 -36.519531 8.664062 -36.332031 C 8.351562 -36.207031 8.164062 -36.144531 7.914062 -36.082031 C 7.664062 -36.019531 7.292969 -35.894531 6.792969 -35.710938 L 5.484375 -35.335938 L 5.171875 -35.210938 L 4.488281 -35.023438 C 4.238281 -34.960938 4.050781 -34.898438 3.863281 -34.773438 C 3.613281 -34.648438 3.367188 -34.527344 2.992188 -34.277344 C 2.679688 -33.964844 2.429688 -33.714844 2.054688 -33.277344 L 1.871094 -32.96875 C 1.746094 -32.65625 1.621094 -32.40625 1.558594 -31.90625 L 1.496094 -31.097656 C 1.496094 -30.535156 1.496094 -30.039062 1.746094 -29.539062 L 1.808594 -29.226562 C 1.871094 -29.042969 1.933594 -28.855469 2.117188 -28.605469 C 2.242188 -28.355469 2.492188 -28.167969 2.992188 -27.792969 C 3.550781 -27.484375 3.863281 -27.359375 4.050781 -27.296875 C 4.300781 -27.171875 4.738281 -27.171875 5.609375 -27.234375 L 5.984375 -27.296875 L 6.355469 -27.296875 C 6.605469 -27.296875 6.855469 -27.359375 7.042969 -27.484375 C 7.292969 -27.609375 7.417969 -27.734375 7.601562 -27.917969 C 7.789062 -28.105469 7.976562 -28.230469 8.289062 -28.417969 C 8.601562 -28.542969 8.789062 -28.605469 8.972656 -28.730469 C 9.160156 -28.855469 9.285156 -28.917969 9.535156 -28.792969 C 9.785156 -28.730469 9.972656 -28.542969 10.21875 -28.230469 L 10.40625 -27.855469 C 10.53125 -27.609375 10.65625 -27.484375 10.84375 -27.359375 C 11.09375 -27.296875 11.34375 -27.234375 11.714844 -27.234375 Z M 9.285156 -33.714844 C 9.597656 -33.589844 9.722656 -33.464844 9.660156 -33.214844 L 9.660156 -32.59375 C 9.722656 -32.40625 9.597656 -32.15625 9.347656 -31.84375 C 9.097656 -31.472656 8.972656 -31.285156 8.789062 -31.160156 C 8.601562 -31.035156 8.289062 -30.847656 7.789062 -30.660156 C 7.230469 -30.414062 6.855469 -30.351562 6.417969 -30.351562 C 5.984375 -30.289062 5.671875 -30.351562 5.421875 -30.351562 C 5.171875 -30.414062 5.046875 -30.472656 4.921875 -30.660156 C 4.796875 -30.910156 4.738281 -31.035156 4.675781 -31.347656 C 4.613281 -31.597656 4.859375 -31.90625 5.296875 -32.34375 L 5.609375 -32.46875 C 5.796875 -32.59375 5.984375 -32.71875 6.230469 -32.78125 C 6.480469 -32.84375 6.730469 -32.96875 7.230469 -33.277344 L 7.417969 -33.464844 C 7.539062 -33.589844 7.789062 -33.652344 8.226562 -33.777344 L 8.539062 -33.839844 C 8.789062 -33.902344 8.972656 -33.839844 9.285156 -33.714844 Z M 9.285156 -33.714844 "/></g></g></g><g fill="#cb1517" fill-opacity="1"><g transform="translate(296.430951, 225.189492)"><g><path d="M 20.90625 -2.28125 C 19.195312 0.0195312 16.539062 1.171875 12.9375 1.171875 C 9.332031 1.171875 6.628906 -0.0507812 4.828125 -2.5 C 3.078125 -4.875 2.203125 -8.25 2.203125 -12.625 L 2.203125 -32.5625 C 2.203125 -39.65625 4.109375 -44.113281 7.921875 -45.9375 C 9.328125 -46.59375 11.019531 -46.921875 13 -46.921875 C 16.394531 -46.921875 18.957031 -45.828125 20.6875 -43.640625 C 22.425781 -41.460938 23.296875 -38.285156 23.296875 -34.109375 L 23.296875 -27.15625 L 15.265625 -27.15625 L 15.265625 -33.65625 C 15.265625 -34.425781 15.238281 -35.125 15.1875 -35.75 C 15.144531 -36.382812 15.082031 -36.921875 15 -37.359375 C 14.914062 -37.804688 14.820312 -38.175781 14.71875 -38.46875 C 14.5625 -38.863281 14.347656 -39.148438 14.078125 -39.328125 C 13.804688 -39.503906 13.4375 -39.59375 12.96875 -39.59375 C 12.65625 -39.59375 12.382812 -39.546875 12.15625 -39.453125 C 11.9375 -39.367188 11.742188 -39.238281 11.578125 -39.0625 C 11.410156 -38.894531 11.269531 -38.660156 11.15625 -38.359375 C 10.738281 -37.378906 10.53125 -35.820312 10.53125 -33.6875 L 10.53125 -12.328125 C 10.53125 -9.953125 10.726562 -8.269531 11.125 -7.28125 C 11.300781 -6.863281 11.523438 -6.5625 11.796875 -6.375 C 12.078125 -6.195312 12.441406 -6.109375 12.890625 -6.109375 C 13.203125 -6.109375 13.46875 -6.144531 13.6875 -6.21875 C 13.90625 -6.300781 14.09375 -6.429688 14.25 -6.609375 C 14.40625 -6.796875 14.539062 -7.023438 14.65625 -7.296875 C 14.851562 -7.785156 15.003906 -8.457031 15.109375 -9.3125 C 15.210938 -10.175781 15.265625 -11.207031 15.265625 -12.40625 L 15.265625 -19.59375 L 23.390625 -19.59375 L 23.390625 -12.484375 C 23.390625 -7.921875 22.5625 -4.519531 20.90625 -2.28125 Z M 20.90625 -2.28125 "/></g></g></g><g fill="#cb1517" fill-opacity="1"><g transform="translate(323.269957, 225.189492)"><g><path d="M 12.609375 -20.84375 L 11.046875 -20.921875 L 11.046875 0.65625 L 2.78125 0.65625 L 2.78125 -46.390625 L 14.953125 -46.390625 C 15.773438 -46.390625 16.53125 -46.332031 17.21875 -46.21875 C 17.914062 -46.113281 18.5625 -45.941406 19.15625 -45.703125 C 19.75 -45.472656 20.269531 -45.175781 20.71875 -44.8125 C 20.976562 -44.601562 21.21875 -44.375 21.4375 -44.125 C 21.664062 -43.875 21.867188 -43.609375 22.046875 -43.328125 C 22.234375 -43.054688 22.40625 -42.765625 22.5625 -42.453125 C 22.71875 -42.140625 22.851562 -41.8125 22.96875 -41.46875 C 23.082031 -41.132812 23.179688 -40.785156 23.265625 -40.421875 C 23.453125 -39.515625 23.59375 -38.488281 23.6875 -37.34375 C 23.78125 -36.207031 23.828125 -34.9375 23.828125 -33.53125 C 23.828125 -30.65625 23.519531 -28.453125 22.90625 -26.921875 C 22.445312 -25.796875 21.71875 -24.914062 20.71875 -24.28125 C 21.71875 -23.675781 22.460938 -22.660156 22.953125 -21.234375 C 23.285156 -20.234375 23.523438 -18.765625 23.671875 -16.828125 C 23.828125 -14.898438 23.90625 -12.445312 23.90625 -9.46875 C 23.90625 -8.113281 23.914062 -6.863281 23.9375 -5.71875 C 23.957031 -4.570312 23.972656 -3.625 23.984375 -2.875 C 24.003906 -2.132812 24.023438 -1.535156 24.046875 -1.078125 C 24.078125 -0.617188 24.101562 -0.335938 24.125 -0.234375 L 24.484375 0.65625 L 16.171875 0.65625 L 15.984375 0.28125 C 15.828125 -0.03125 15.726562 -1.050781 15.6875 -2.78125 C 15.65625 -4.507812 15.640625 -7.679688 15.640625 -12.296875 C 15.640625 -14.066406 15.640625 -15.4375 15.640625 -16.40625 C 15.640625 -17.34375 15.582031 -18.125 15.46875 -18.75 C 15.363281 -19.382812 15.222656 -19.820312 15.046875 -20.0625 C 14.679688 -20.550781 13.867188 -20.8125 12.609375 -20.84375 Z M 11.078125 -27.65625 L 13.203125 -27.65625 C 13.359375 -27.65625 13.503906 -27.660156 13.640625 -27.671875 C 13.785156 -27.691406 13.910156 -27.710938 14.015625 -27.734375 C 14.117188 -27.753906 14.21875 -27.785156 14.3125 -27.828125 C 14.40625 -27.867188 14.484375 -27.90625 14.546875 -27.9375 C 14.609375 -27.976562 14.664062 -28.023438 14.71875 -28.078125 C 15.039062 -28.367188 15.269531 -28.929688 15.40625 -29.765625 C 15.476562 -30.210938 15.535156 -30.800781 15.578125 -31.53125 C 15.617188 -32.269531 15.640625 -33.128906 15.640625 -34.109375 L 15.640625 -34.390625 C 15.640625 -36.765625 15.460938 -38.28125 15.109375 -38.9375 C 14.804688 -39.476562 14.03125 -39.75 12.78125 -39.75 L 11.078125 -39.75 Z M 11.078125 -27.65625 "/></g></g></g></svg>